<svg width="266" height="266" viewBox="0 0 266 266" fill="none" xmlns="http://www.w3.org/2000/svg">
<path d="M38.7074 152.504C39.3104 155.309 40.5488 157.648 42.4228 159.521" stroke="#8F848D" stroke-width="2"/>
<path d="M42.4222 159.521L41.8792 160.143C41.7235 160.316 41.6799 160.515 41.7486 160.741C46.1634 174.904 53.6264 187.216 64.1376 197.675C65.6386 199.169 68.8383 201.98 73.7368 206.106" stroke="#EAF0F3" stroke-width="2"/>
<path d="M73.7369 206.107C74.0561 206.861 74.531 207.413 75.1617 207.763" stroke="#FDDCA7" stroke-width="2"/>
<path d="M75.1616 207.763C75.638 208.364 75.8695 208.918 75.8562 209.426C75.846 209.658 75.9136 209.861 76.0588 210.036C95.5796 233.675 129.224 239.947 156.363 226.824C158.141 225.966 159.892 224.543 161.627 223.423C161.678 223.39 161.719 223.342 161.743 223.286C161.768 223.23 161.775 223.168 161.766 223.108C161.756 223.048 161.729 222.992 161.688 222.947C161.647 222.901 161.594 222.869 161.535 222.853C161.367 222.81 161.325 222.745 161.408 222.657" stroke="#EAF0F3" stroke-width="2"/>
<path d="M161.408 222.657L163.557 221.724" stroke="#FDD6A2" stroke-width="2"/>
<path d="M163.556 221.724C178.315 217.007 191.428 208.848 202.893 197.249C206.003 194.103 208.584 190.837 210.636 187.453C210.758 187.25 210.729 187.077 210.549 186.935C210.266 186.712 210.135 186.466 210.157 186.198" stroke="#EAF0F3" stroke-width="2"/>
<path d="M210.157 186.198C215.111 182.378 216.762 177.463 215.109 171.452C215.041 171.222 215.129 171.108 215.371 171.11C228.825 171.352 235.204 154.945 225.545 145.833C225.502 145.794 225.47 145.744 225.451 145.689C225.432 145.633 225.427 145.574 225.437 145.516C225.447 145.459 225.471 145.404 225.507 145.358C225.543 145.312 225.59 145.276 225.644 145.252C235.372 140.94 236.44 127.948 228.138 121.625C227.932 121.464 227.924 121.297 228.113 121.125C236.771 113.197 232.986 101.138 221.61 98.3618" stroke="#8F848D" stroke-width="2"/>
<path d="M221.61 98.3619C223.797 96.0115 224.859 93.278 224.795 90.1615C224.615 81.6013 217.386 76.0438 208.856 76.4331C208.606 76.4442 208.488 76.3221 208.503 76.0669C208.969 69.2787 206.569 63.7486 201.302 59.4767" stroke="#968990" stroke-width="2"/>
<path d="M201.302 59.4767C196.875 55.8627 191.982 54.867 186.623 56.4895C186.565 56.507 186.504 56.5119 186.444 56.5038C186.384 56.4958 186.327 56.4749 186.276 56.4427C186.225 56.4105 186.182 56.3677 186.15 56.3173C186.118 56.267 186.098 56.2103 186.09 56.1511C184.351 44.104 171.535 38.5606 161.573 45.8002C161.367 45.9501 161.235 45.9008 161.175 45.6525C158.083 31.9105 141.455 28.5996 132.822 39.6444C132.66 39.8551 132.497 39.8565 132.333 39.6489C124.678 29.8564 109.822 31.2643 105.734 43.5398C105.712 43.6047 105.675 43.6636 105.626 43.7115C105.577 43.7594 105.517 43.7949 105.452 43.8151C105.387 43.8354 105.317 43.8398 105.25 43.8279C105.182 43.816 105.119 43.7883 105.064 43.7469C94.7933 35.8797 82.2231 41.4739 79.8175 54.1006C79.767 54.3691 79.6211 54.4415 79.3796 54.3179C67.8527 48.4392 56.4413 57.6856 58.5805 70.2089C58.6309 70.4848 58.5147 70.6109 58.232 70.5872C48.6822 69.7682 40.4157 78.8267 44.6524 88.141C44.9005 88.6838 45.1265 89.2422 45.3304 89.8162C45.3665 89.9223 45.3619 90.0378 45.3176 90.1397C45.2733 90.2416 45.1924 90.3225 45.0912 90.3662C35.3111 94.6842 32.7483 105.702 39.9764 113.972C40.015 114.017 40.0429 114.07 40.0581 114.127C40.0732 114.185 40.0752 114.245 40.0639 114.303C40.0526 114.362 40.0283 114.417 39.9928 114.464C39.9573 114.512 39.9115 114.551 39.8589 114.579C28.2334 120.749 28.9563 136.677 41.3987 141.457C41.645 141.552 41.6827 141.702 41.512 141.906C38.8611 145.097 37.9261 148.629 38.7071 152.504" stroke="#A09496" stroke-width="2"/>
<path d="M201.302 59.4767C200.989 59.5743 200.821 59.801 200.8 60.157C200.785 60.3878 200.873 60.5681 201.065 60.6978C201.361 60.9035 201.438 61.1791 201.297 61.5245C196.701 73.0068 184.256 81.4289 173.245 86.0847C160.778 91.3683 150.094 92.6823 137.974 95.3202C130.193 97.0103 126.169 102.335 117.806 100.922C117.704 100.905 117.607 100.862 117.525 100.798C117.443 100.734 117.377 100.651 117.335 100.556C117.293 100.461 117.275 100.356 117.282 100.253C117.29 100.149 117.323 100.048 117.379 99.9604C117.537 99.7151 117.787 99.5729 118.129 99.5337C118.292 99.5153 118.446 99.4504 118.573 99.347C118.7 99.2435 118.795 99.1058 118.846 98.9501C118.897 98.7945 118.902 98.6274 118.861 98.4689C118.82 98.3103 118.734 98.167 118.614 98.0558L113.135 92.9632C112.951 92.7936 112.709 92.7023 112.459 92.7091C112.21 92.7159 111.974 92.8201 111.802 92.9994C107.909 96.997 97.2532 103.251 92.0909 98.0156C92.0289 97.9517 91.9698 97.9562 91.9137 98.0293L91.585 98.462" stroke="#382029" stroke-width="2"/>
<path d="M91.5857 98.4621L91.2011 98.2802C91.0882 98.2299 90.9643 98.21 90.8419 98.2224C90.7195 98.2349 90.6029 98.2794 90.5037 98.3514C88.6722 99.6638 86.6717 100.612 84.502 101.197C84.2371 101.268 84.0771 101.438 84.0219 101.706C82.9458 106.757 81.0225 108.596 78.1013 111.847C76.1415 114.03 74.34 117.041 73.893 119.546C72.6671 126.453 71.8601 133.327 71.4718 140.168C71.4227 141.029 71.2691 141.047 71.0108 140.221C69.2608 134.553 68.1035 128.758 67.5391 122.835C67.4967 122.397 67.2946 121.99 66.9714 121.692C66.6482 121.394 66.2265 121.225 65.7868 121.218L61.6998 121.158" stroke="#8B5949" stroke-width="2"/>
<path d="M61.6996 121.158C58.4157 122.409 56.0685 124.97 54.6579 128.842C53.3663 132.414 54.4326 137.815 54.2511 141.59C53.9258 148.46 53.8086 155.25 53.8997 161.957C53.9015 162.106 53.8731 162.254 53.8162 162.391C53.7593 162.529 53.6751 162.653 53.5688 162.756C53.4625 162.86 53.3363 162.94 53.198 162.993C53.0597 163.046 52.9121 163.069 52.7644 163.062C48.2292 162.866 44.6475 161.204 42.0194 158.075C41.0174 156.891 41.1481 155.477 40.3114 154.307C39.836 153.643 39.3014 153.042 38.7074 152.504" stroke="#311B26" stroke-width="2"/>
<path d="M221.611 98.3619C215.807 106.441 210.265 113.007 204.984 118.06C202.781 120.172 203.51 120.478 203.098 122.945C202.063 129.243 200.66 135.461 198.889 141.601C198.639 142.47 198.162 143.008 197.885 143.865" stroke="#271020" stroke-width="2"/>
<path d="M197.885 143.865C197.85 143.927 197.776 143.99 197.663 144.053C197.514 144.13 197.413 144.249 197.362 144.411C195.544 149.963 192.867 155.042 189.33 159.647" stroke="#5D2C2C" stroke-width="2"/>
<path d="M189.329 159.647C191.154 149.372 195.695 139.156 191.424 130.383C189.542 126.527 188.457 123.427 189.126 119.057C189.171 118.758 189.044 118.596 188.742 118.569C182.964 118.021 178.617 115.312 175.701 110.443C175.557 110.205 175.378 110.169 175.165 110.337C169.207 114.984 159.082 114.592 155.357 107.158C155.252 106.945 155.101 106.908 154.903 107.044C148.829 111.214 142.844 111.255 136.948 107.168" stroke="#733E37" stroke-width="2"/>
<path d="M136.948 107.168L133.794 103.155C133.762 103.114 133.722 103.081 133.676 103.057C133.63 103.033 133.579 103.018 133.527 103.015C133.474 103.012 133.422 103.019 133.372 103.037C133.323 103.055 133.277 103.083 133.239 103.119C126.077 109.966 116.606 107.819 111.789 99.6897C111.764 99.6463 111.729 99.6089 111.688 99.58C111.646 99.5511 111.599 99.5315 111.55 99.5224C111.5 99.5133 111.449 99.5149 111.4 99.5272C111.351 99.5395 111.306 99.5621 111.266 99.5936C104.367 105.193 97.8066 104.816 91.585 98.462" stroke="#78443B" stroke-width="2"/>
<path d="M136.947 107.168C136.314 107.318 135.791 107.666 135.378 108.213" stroke="#BD6D4F" stroke-width="2"/>
<path d="M135.378 108.213C134.736 107.303 133.892 106.819 132.847 106.763C132.605 106.75 132.367 106.83 132.182 106.986C130.185 108.64 127.957 109.714 125.496 110.21C122.657 110.786 116.6 109.75 113.913 108.441C110.546 106.801 106.993 106.46 103.253 107.419C102.999 107.483 102.769 107.439 102.561 107.287C101.322 106.384 100.096 106.475 98.9578 105.925C95.6257 104.295 93.0987 102.947 91.2455 99.9061C91.1859 99.8085 91.1516 99.6975 91.1455 99.5832C91.1394 99.4689 91.1619 99.3549 91.2109 99.2514L91.5854 98.462" stroke="#CB7D5B" stroke-width="2"/>
<path d="M106.021 188.221C105.566 188.926 105.036 189.375 104.429 189.569" stroke="#6C3934" stroke-width="2"/>
<path d="M104.429 189.569L99.2438 190.096" stroke="#8F6A3B" stroke-width="2"/>
<path d="M99.2443 190.096C94.6652 190.588 90.4756 191.604 86.6757 193.146" stroke="#8F6337" stroke-width="2"/>
<path d="M86.6755 193.146C84.3503 191.468 83.1451 189.478 83.0598 187.174C83.058 187.104 83.0379 187.036 83.0015 186.976C82.9652 186.916 82.9139 186.867 82.8527 186.833C82.7914 186.799 82.7224 186.781 82.6524 186.782C82.5824 186.783 82.5139 186.802 82.4535 186.838C75.1124 191.089 66.5697 186.183 67.3745 177.447C67.3957 177.208 67.2872 177.117 67.0492 177.173C60.1964 178.805 55.6931 176.616 53.5392 170.608C52.8407 168.667 53.2875 166.25 53.5181 164.204C53.5503 163.956 53.44 163.833 53.1872 163.834C48.9766 163.843 45.3884 162.406 42.4225 159.521" stroke="#7C7783" stroke-width="2"/>
<path d="M140.964 112.369L133.443 151.911" stroke="#CB7D5B" stroke-width="2"/>
<path d="M133.443 151.911C127.17 149.527 118.229 155.387 126.085 162.02" stroke="#C67757" stroke-width="2"/>
<path d="M126.084 162.02C127.237 162.648 128.18 163.518 128.915 164.63C129.741 165.863 132.892 170.233 135.358 170.783C135.596 170.838 135.609 170.922 135.395 171.037C134.939 171.29 134.814 171.638 135.021 172.081" stroke="#CB7D5B" stroke-width="2"/>
<path d="M135.021 172.082C126.855 171.483 117.51 169.889 110.42 165.66" stroke="#E9C2B0" stroke-width="2"/>
<path d="M110.42 165.66C110.336 164.722 109.858 164.131 108.986 163.886C108.81 163.837 108.625 163.829 108.446 163.863C108.266 163.897 108.097 163.972 107.952 164.082C107.806 164.192 107.688 164.334 107.606 164.497C107.524 164.66 107.481 164.84 107.48 165.023C107.472 170.227 111.699 174.83 115.898 177.278C121.927 180.789 128.379 181.945 135.256 180.746" stroke="#8F5242" stroke-width="2"/>
<path d="M135.256 180.746C135.645 183.981 136.864 186.98 138.912 189.743C139.058 189.943 139.13 190.164 139.128 190.406C139.103 191.471 138.743 192.404 138.048 193.205C137.902 193.374 137.717 193.464 137.492 193.475C137.178 193.49 136.975 193.64 136.883 193.926" stroke="#CB7D5B" stroke-width="2"/>
<path d="M136.883 193.926C126.833 193.318 116.977 191.512 107.315 188.506C107.084 188.433 106.847 188.414 106.602 188.451C106.189 188.507 105.996 188.43 106.022 188.221" stroke="#C67757" stroke-width="2"/>
<path d="M106.022 188.221C89.391 180.929 72.8044 171.101 70.0126 151.169C69.9748 150.905 70.0169 150.657 70.1389 150.425L70.3195 150.091C70.4629 149.819 70.3818 149.681 70.0762 149.678C59.195 149.53 53.0471 140.007 55.3814 129.906C56.2353 126.221 58.3414 123.305 61.6996 121.158" stroke="#7A4940" stroke-width="2"/>
<path d="M189.33 159.647L186.236 169.416" stroke="#A25640" stroke-width="2"/>
<path d="M141.959 194.517C141.817 194.066 141.787 193.642 141.868 193.248C141.915 193.003 142.059 192.853 142.302 192.797C149.452 191.131 156.823 186.659 159.132 179.243C159.418 178.334 159.575 176.776 159.604 174.57C159.674 169.896 161.16 165.694 164.063 161.963C164.94 160.829 166.502 159.702 167.456 158.165C167.63 157.884 167.553 157.761 167.226 157.798C166.612 157.864 166.211 157.667 166.022 157.207C165.936 156.994 165.779 156.875 165.55 156.85C165.259 156.82 164.999 156.73 164.772 156.58" stroke="#BD6D4F" stroke-width="2"/>
<path d="M164.771 156.58C168.002 155.213 170.25 152.479 171.515 148.378" stroke="#A25640" stroke-width="2"/>
<path d="M171.515 148.378C172.442 149.843 173.311 150.693 174.122 150.928C174.437 151.02 174.586 150.902 174.568 150.573C174.301 144.764 171.625 140.312 166.541 137.218" stroke="#63372B" stroke-width="2"/>
<path d="M166.542 137.218L167.588 134.319C167.67 134.09 167.668 133.861 167.58 133.633C166.516 130.769 167.2 128.589 169.631 127.091" stroke="#BD6D4F" stroke-width="2"/>
<path d="M169.631 127.092C172.275 128.726 174.65 130.755 176.756 133.178C176.823 133.253 176.912 133.304 177.011 133.323C177.109 133.342 177.211 133.329 177.301 133.284C177.391 133.24 177.464 133.168 177.51 133.078C177.555 132.989 177.569 132.887 177.551 132.788C176.447 127.439 173.656 123.051 169.178 119.622" stroke="#733E37" stroke-width="2"/>
<path d="M169.179 119.622L166.214 116.385C166.087 116.247 165.93 116.169 165.743 116.152L165.234 116.102C164.989 116.084 164.758 115.975 164.587 115.796C163.69 114.866 162.647 114.592 161.46 114.973C161.203 115.056 160.947 115.049 160.691 114.952C159.293 114.428 157.969 113.749 156.721 112.915C155.836 112.327 154.938 110.534 153.559 111.095C149.068 112.904 144.869 113.329 140.964 112.369" stroke="#BD6D4F" stroke-width="2"/>
<path d="M140.964 112.369C138.955 111.319 137.093 109.933 135.378 108.213" stroke="#C67757" stroke-width="2"/>
<path d="M210.157 186.198C206.31 188.733 202.148 189.502 197.671 188.504C197.437 188.449 197.29 188.541 197.23 188.779C196.71 190.768 196.393 192.938 195.231 194.542C191.468 199.75 184.33 200.054 179.477 196.001C179.231 195.794 179.071 195.847 178.998 196.16C177.008 204.666 168.052 206.616 162.071 200.752C162.03 200.713 161.982 200.682 161.93 200.661C161.877 200.64 161.821 200.63 161.764 200.631C161.708 200.632 161.652 200.645 161.6 200.668C161.549 200.691 161.502 200.725 161.463 200.766C159.475 202.9 158.527 204.277 155.015 205.125" stroke="#7C7783" stroke-width="2"/>
<path d="M155.016 205.125C153.059 203.398 151.18 201.939 149.38 200.749C147.483 199.499 144.926 198.156 141.709 196.72" stroke="#8E5D32" stroke-width="2"/>
<path d="M141.708 196.721L137.699 194.742" stroke="#8F6A3B" stroke-width="2"/>
<path d="M137.699 194.742C137.434 194.411 137.344 194.23 137.426 194.2" stroke="#6C3934" stroke-width="2"/>
<path d="M137.426 194.2L141.958 194.517" stroke="#713F38" stroke-width="2"/>
<path d="M141.959 194.518C159.989 194.297 179.145 187.525 186.236 169.416" stroke="#6C3934" stroke-width="2"/>
<path d="M186.236 169.416C199.633 175.058 212.398 158.649 204.603 147.105C202.953 144.674 200.735 143.737 197.885 143.865" stroke="#562829" stroke-width="2"/>
<path d="M141.708 196.72C139.063 208.956 134.401 217.351 120.334 217.376" stroke="#FDBC4F" stroke-width="2"/>
<path d="M120.333 217.377C110.811 217.342 102.123 210.327 100.517 200.978C100.51 200.933 100.43 199.114 100.277 195.521C100.194 193.606 99.8492 191.798 99.2437 190.096" stroke="#FEC154" stroke-width="2"/>
<path d="M86.6753 193.146C80.8004 196.29 76.4876 200.61 73.7369 206.107" stroke="#EACF9C" stroke-width="2"/>
<path d="M137.699 194.742C137.398 194.582 137.231 194.707 137.185 195.02C133.582 218.182 102.022 214.363 104.429 189.569" stroke="#DB9852" stroke-width="2"/>
<path d="M115.009 226.497C100.254 223.919 86.5946 217.416 75.1616 207.763" stroke="#EACF9C" stroke-width="2"/>
<path d="M169.179 119.623C165.319 117.925 157.556 115.295 154.4 119.374C154.262 119.549 154.189 119.766 154.194 119.988C154.21 121.638 154.952 122.69 156.421 123.144C160.182 124.307 165.345 124.469 169.632 127.092" stroke="#78443B" stroke-width="2"/>
<path d="M166.542 137.218C160.624 134.843 153.283 136.171 151.724 143.298C151.625 143.739 151.998 143.885 152.845 143.737" stroke="#683D2F" stroke-width="2"/>
<path d="M152.845 143.737C151.251 149.468 152.564 153.582 156.787 156.078C159.212 157.51 162.182 157.452 164.772 156.58" stroke="#A75C44" stroke-width="2"/>
<path d="M137.427 194.2L136.883 193.926" stroke="#BD6D4F" stroke-width="2"/>
<path d="M135.256 180.746C140.103 179.724 145.335 177.033 147.423 172.291C147.521 172.068 147.55 171.82 147.505 171.58C147.461 171.34 147.345 171.118 147.173 170.945C147.001 170.772 146.78 170.655 146.541 170.608C146.301 170.562 146.053 170.59 145.829 170.686C145.289 170.916 144.746 171.324 144.199 171.912" stroke="#86483B" stroke-width="2"/>
<path d="M144.199 171.912C141.027 172.418 137.968 172.475 135.021 172.082" stroke="#E0B8A8" stroke-width="2"/>
<path d="M126.084 162.02C126.321 161.798 126.456 161.765 126.488 161.921" stroke="#BD6D4F" stroke-width="2"/>
<path d="M126.488 161.921C128.934 163.031 131.763 163.101 134.975 162.13C136.477 161.67 137.322 160.771 137.51 159.432" stroke="#DA8A65" stroke-width="2"/>
<path d="M137.51 159.432C138.739 156.803 137.383 154.296 133.443 151.911" stroke="#BD6D4F" stroke-width="2"/>
<path d="M110.42 165.66C113.937 178.571 136.801 183.071 144.199 171.912" stroke="#A38D90" stroke-width="2"/>
<path d="M137.51 159.433C134.335 154.775 128.1 154.7 124.741 158.855C124.662 158.952 124.617 159.073 124.614 159.199C124.611 159.325 124.65 159.449 124.725 159.552L126.488 161.921" stroke="#D58461" stroke-width="2"/>
<path d="M171.515 148.378C170.947 146.43 170.29 145.043 169.546 144.217C168.978 143.586 168.312 143.166 167.55 142.959C167.421 142.921 167.283 142.928 167.158 142.979C167.034 143.029 166.93 143.121 166.863 143.238C166.797 143.355 166.772 143.491 166.793 143.624C166.814 143.757 166.879 143.879 166.978 143.97C169.743 146.62 168.246 151.49 165.485 153.282C160.109 156.78 155.086 152.399 155.538 146.468C155.554 146.233 155.661 146.047 155.859 145.91C156.5 145.485 156.964 144.997 157.252 144.448" stroke="#4C261F" stroke-width="2"/>
<path d="M157.252 144.448C159.81 145.181 161.8 142.69 160.649 140.323C160.549 140.111 160.393 139.956 160.181 139.857C158.578 139.108 157.212 139.525 156.083 141.108" stroke="#858284" stroke-width="2"/>
<path d="M156.083 141.108C154.831 140.812 153.751 141.689 152.845 143.737" stroke="#4C261F" stroke-width="2"/>
<path d="M163.556 221.724C162.812 215.654 159.966 210.121 155.015 205.125" stroke="#EAC997" stroke-width="2"/>
<path d="M161.408 222.657C146.116 227.935 130.65 229.215 115.01 226.497" stroke="#EAC997" stroke-width="2"/>
<path d="M115.009 226.497C115.338 226.052 116.036 225.791 117.103 225.715C117.389 225.695 117.517 225.54 117.489 225.248C117.244 222.825 117.596 220.552 118.544 218.429C118.623 218.252 118.615 218.098 118.521 217.965C118.412 217.806 118.455 217.726 118.649 217.725C119.256 217.726 119.818 217.61 120.334 217.376" stroke="#FDB54B" stroke-width="2"/>
<path d="M157.252 144.448C156.072 143.752 155.683 142.639 156.083 141.108" stroke="#C4A199" stroke-width="2"/>
<path d="M115.713 110.89C114.532 109.834 113.181 109.114 111.662 108.73C103.067 106.542 94.5386 110.183 90.4241 118.102C90.3531 118.24 90.3289 118.397 90.3553 118.55C90.3818 118.702 90.4573 118.842 90.5705 118.948C90.6837 119.054 90.8284 119.12 90.9826 119.136C91.1367 119.152 91.2919 119.117 91.4245 119.037C99.189 114.268 104.61 114.67 113.479 115.811C116.418 116.186 118.037 112.962 115.713 110.89Z" stroke="#814E43" stroke-width="2"/>
<path d="M93.1289 133.907C92.7349 137.145 92.9288 139.725 93.7109 141.646C95.7566 146.688 101.576 148.653 106.43 146.517C110.043 144.928 111.965 141.748 112.197 136.976" stroke="#B0664B" stroke-width="2"/>
<path d="M112.197 136.976C113.065 136.069 113.335 135.035 113.007 133.876C111.54 128.604 107.254 125.508 101.797 125.617C95.4336 125.739 90.0579 130.265 87.1773 135.725C87.1521 135.773 87.1366 135.826 87.1319 135.88C87.1271 135.934 87.1332 135.988 87.1497 136.039C87.1662 136.09 87.1928 136.137 87.228 136.177C87.2631 136.218 87.306 136.25 87.3541 136.273C89.5145 137.332 91.6046 135.413 93.1287 133.907" stroke="#714736" stroke-width="2"/>
<path d="M112.197 136.976C111.894 136.188 108.713 130.53 107.665 131.592C107.421 131.837 107.282 132.168 107.277 132.516C107.272 132.863 107.403 133.2 107.641 133.454C112.641 138.786 106.865 146.488 100.255 144.069C96.942 142.855 95.6178 139.933 96.2823 135.302" stroke="#4C261F" stroke-width="2"/>
<path d="M96.2824 135.302C98.9995 136.303 101.007 134.785 100.587 131.892C100.091 128.542 96.1163 130.353 95.1529 132.464" stroke="#858284" stroke-width="2"/>
<path d="M95.1526 132.464C94.1338 132.826 93.4592 133.307 93.1289 133.907" stroke="#4C261F" stroke-width="2"/>
<path d="M96.2824 135.303C95.507 134.573 95.1305 133.627 95.1529 132.464" stroke="#C4A199" stroke-width="2"/>
<path d="M78.619 163.769C79.0692 164.696 79.8176 165.341 80.8642 165.703C81.1158 165.789 81.3885 165.789 81.6402 165.704C81.8919 165.619 82.1085 165.453 82.2565 165.233C82.4044 165.012 82.4754 164.748 82.4584 164.483C82.4415 164.218 82.3376 163.966 82.1627 163.766C78.0011 158.992 77.9389 151.713 83.275 147.807C83.498 147.645 83.7636 147.55 84.0402 147.535C84.3168 147.52 84.5927 147.585 84.835 147.721C86.2576 148.532 90.4022 149.111 90.7308 146.703C90.7674 146.448 90.7356 146.189 90.6386 145.952C90.5417 145.715 90.3831 145.509 90.1795 145.355C87.1009 142.991 83.6798 141.642 79.9161 141.31C75.7851 140.951 74.8731 145.637 74.2129 148.667C72.9995 154.184 76.33 159.087 78.619 163.769Z" stroke="#E3946D" stroke-width="2"/>
<path d="M201.302 59.4767C200.989 59.5742 200.821 59.801 200.8 60.157C200.785 60.3878 200.874 60.568 201.065 60.6978C201.361 60.9035 201.438 61.179 201.297 61.5244C196.702 73.0067 184.256 81.4288 173.245 86.0847C160.779 91.3683 150.094 92.6823 137.974 95.3202C130.193 97.0103 126.169 102.335 117.806 100.922C117.704 100.905 117.607 100.862 117.525 100.798C117.443 100.734 117.378 100.651 117.335 100.556C117.293 100.461 117.275 100.356 117.283 100.253C117.29 100.149 117.323 100.048 117.379 99.9604C117.537 99.7151 117.788 99.5729 118.13 99.5337C118.292 99.5152 118.446 99.4504 118.573 99.347C118.7 99.2435 118.795 99.1058 118.846 98.9501C118.897 98.7944 118.902 98.6274 118.861 98.4689C118.82 98.3103 118.734 98.1669 118.614 98.0558L113.136 92.9632C112.952 92.7935 112.709 92.7023 112.46 92.7091C112.21 92.7159 111.974 92.8201 111.803 92.9994C107.909 96.997 97.2534 103.251 92.0911 98.0156C92.0291 97.9516 91.97 97.9562 91.9138 98.0293L91.5852 98.4619L91.2006 98.28C91.0877 98.2297 90.9638 98.2098 90.8414 98.2223C90.7189 98.2348 90.6023 98.2792 90.5032 98.3512C88.6717 99.6636 86.6711 100.612 84.5015 101.196C84.2366 101.268 84.0766 101.438 84.0214 101.705C82.9452 106.757 81.022 108.596 78.1008 111.847C76.141 114.03 74.3395 117.041 73.8925 119.546C72.6666 126.453 71.8595 133.327 71.4712 140.168C71.4222 141.029 71.2685 141.047 71.0103 140.221C69.2602 134.553 68.103 128.758 67.5385 122.834C67.4961 122.397 67.2941 121.99 66.9709 121.692C66.6477 121.393 66.226 121.225 65.7863 121.217L61.6993 121.158C58.4153 122.409 56.0681 124.97 54.6575 128.842C53.366 132.414 54.4322 137.815 54.2508 141.59C53.9254 148.46 53.8083 155.25 53.8993 161.957C53.9011 162.106 53.8727 162.254 53.8158 162.391C53.7589 162.529 53.6747 162.653 53.5684 162.756C53.4621 162.86 53.3359 162.94 53.1976 162.993C53.0593 163.046 52.9118 163.069 52.764 163.062C48.2288 162.866 44.6471 161.204 42.019 158.075C41.017 156.891 41.1477 155.477 40.311 154.307C39.8357 153.643 39.301 153.042 38.7071 152.504C37.9261 148.629 38.8611 145.097 41.512 141.906C41.6827 141.702 41.645 141.552 41.3987 141.457C28.9563 136.677 28.2334 120.749 39.8589 114.579C39.9115 114.551 39.9573 114.512 39.9928 114.464C40.0283 114.417 40.0526 114.362 40.0639 114.303C40.0752 114.245 40.0732 114.185 40.0581 114.127C40.0429 114.07 40.015 114.017 39.9764 113.972C32.7483 105.702 35.3111 94.6842 45.0912 90.3662C45.1924 90.3225 45.2733 90.2416 45.3176 90.1397C45.3619 90.0378 45.3665 89.9223 45.3304 89.8162C45.1265 89.2422 44.9005 88.6838 44.6524 88.1411C40.4157 78.8267 48.6822 69.7682 58.232 70.5872C58.5147 70.6109 58.6309 70.4848 58.5805 70.2089C56.4413 57.6856 67.8527 48.4392 79.3796 54.3179C79.6211 54.4415 79.767 54.3691 79.8175 54.1006C82.2231 41.4739 94.7933 35.8797 105.064 43.7469C105.119 43.7883 105.182 43.816 105.25 43.8279C105.317 43.8398 105.387 43.8354 105.452 43.8151C105.517 43.7949 105.577 43.7594 105.626 43.7115C105.675 43.6636 105.712 43.6047 105.734 43.5398C109.822 31.2643 124.678 29.8564 132.333 39.6489C132.497 39.8565 132.66 39.8551 132.822 39.6444C141.455 28.5996 158.083 31.9105 161.175 45.6525C161.235 45.9008 161.367 45.9501 161.573 45.8002C171.535 38.5606 184.351 44.104 186.09 56.1511C186.098 56.2103 186.118 56.267 186.15 56.3173C186.182 56.3677 186.225 56.4105 186.276 56.4427C186.327 56.4749 186.384 56.4958 186.444 56.5038C186.504 56.5119 186.565 56.507 186.623 56.4895C191.982 54.867 196.875 55.8627 201.302 59.4767Z" fill="#422B2F"/>
<path d="M201.302 59.4767C206.569 63.7486 208.969 69.2787 208.503 76.0669C208.488 76.3221 208.606 76.4442 208.856 76.4331C217.386 76.0438 224.615 81.6013 224.795 90.1615C224.859 93.278 223.797 96.0115 221.61 98.3619C215.806 106.441 210.264 113.007 204.984 118.06C202.781 120.172 203.509 120.477 203.097 122.945C202.062 129.243 200.659 135.461 198.888 141.601C198.639 142.47 198.161 143.008 197.884 143.865C197.849 143.927 197.776 143.99 197.663 144.054C197.514 144.13 197.413 144.249 197.362 144.411C195.544 149.964 192.867 155.042 189.329 159.647C191.154 149.372 195.695 139.156 191.424 130.382C189.542 126.527 188.457 123.427 189.126 119.057C189.171 118.758 189.044 118.596 188.742 118.569C182.964 118.021 178.617 115.312 175.701 110.443C175.557 110.205 175.378 110.169 175.165 110.337C169.207 114.983 159.082 114.592 155.357 107.158C155.252 106.945 155.101 106.907 154.903 107.044C148.829 111.213 142.844 111.255 136.948 107.168L133.794 103.155C133.762 103.114 133.722 103.081 133.676 103.057C133.63 103.033 133.579 103.018 133.527 103.015C133.474 103.012 133.422 103.019 133.372 103.037C133.323 103.055 133.277 103.083 133.239 103.119C126.077 109.966 116.606 107.819 111.79 99.6897C111.764 99.6463 111.729 99.6088 111.688 99.58C111.647 99.5511 111.599 99.5314 111.55 99.5223C111.5 99.5132 111.449 99.5148 111.4 99.5271C111.351 99.5394 111.306 99.5621 111.266 99.5936C104.367 105.193 97.8066 104.816 91.585 98.462L91.9137 98.0293C91.9698 97.9562 92.0289 97.9517 92.0909 98.0156C97.2532 103.251 107.909 96.997 111.802 92.9994C111.974 92.8201 112.21 92.7159 112.459 92.7091C112.709 92.7023 112.951 92.7936 113.135 92.9632L118.614 98.0558C118.734 98.167 118.82 98.3103 118.861 98.4689C118.902 98.6274 118.897 98.7945 118.846 98.9501C118.795 99.1058 118.7 99.2435 118.573 99.347C118.446 99.4504 118.292 99.5153 118.129 99.5337C117.787 99.5729 117.537 99.7151 117.379 99.9604C117.323 100.048 117.29 100.149 117.282 100.253C117.275 100.356 117.293 100.461 117.335 100.556C117.377 100.651 117.443 100.734 117.525 100.798C117.607 100.862 117.704 100.905 117.806 100.922C126.169 102.335 130.193 97.0103 137.974 95.3202C150.094 92.6823 160.778 91.3683 173.245 86.0847C184.256 81.4289 196.701 73.0068 201.297 61.5245C201.438 61.1791 201.361 60.9035 201.065 60.6978C200.873 60.5681 200.785 60.3878 200.8 60.157C200.821 59.801 200.989 59.5743 201.302 59.4767Z" fill="#2E1423"/>
<path d="M221.61 98.3618C232.985 101.138 236.771 113.197 228.113 121.125C227.923 121.297 227.932 121.464 228.137 121.625C236.44 127.948 235.372 140.94 225.643 145.252C225.59 145.276 225.543 145.312 225.507 145.358C225.471 145.404 225.447 145.459 225.437 145.516C225.427 145.574 225.432 145.633 225.451 145.688C225.47 145.744 225.502 145.794 225.545 145.833C235.203 154.945 228.825 171.352 215.371 171.11C215.129 171.108 215.041 171.222 215.109 171.452C216.762 177.462 215.111 182.378 210.157 186.198C206.31 188.733 202.148 189.502 197.671 188.504C197.437 188.449 197.29 188.541 197.23 188.779C196.71 190.768 196.393 192.938 195.232 194.542C191.468 199.75 184.33 200.054 179.477 196.001C179.231 195.794 179.071 195.847 178.998 196.16C177.008 204.666 168.052 206.616 162.071 200.753C162.03 200.713 161.982 200.682 161.93 200.661C161.877 200.64 161.821 200.63 161.764 200.631C161.708 200.632 161.652 200.645 161.6 200.668C161.549 200.691 161.502 200.725 161.463 200.766C159.475 202.9 158.527 204.277 155.015 205.125C153.058 203.398 151.179 201.939 149.379 200.749C147.482 199.499 144.925 198.156 141.708 196.72L137.699 194.742C137.434 194.411 137.344 194.23 137.426 194.2L141.958 194.517C159.988 194.297 179.145 187.524 186.235 169.416C199.632 175.058 212.398 158.649 204.603 147.105C202.952 144.674 200.735 143.736 197.884 143.865C198.161 143.008 198.639 142.469 198.888 141.6C200.659 135.461 202.062 129.243 203.097 122.945C203.509 120.477 202.781 120.172 204.984 118.059C210.264 113.007 215.806 106.441 221.61 98.3618Z" fill="#200B1D"/>
<path d="M136.948 107.168C136.315 107.318 135.792 107.666 135.378 108.214C134.736 107.303 133.892 106.819 132.847 106.763C132.605 106.75 132.367 106.83 132.182 106.986C130.185 108.64 127.957 109.714 125.496 110.21C122.657 110.786 116.6 109.75 113.913 108.441C110.546 106.801 106.993 106.46 103.253 107.419C102.999 107.483 102.769 107.439 102.561 107.287C101.322 106.384 100.096 106.475 98.9578 105.925C95.6257 104.295 93.0987 102.947 91.2455 99.9062C91.1859 99.8085 91.1515 99.6975 91.1455 99.5832C91.1394 99.4689 91.1619 99.3549 91.2109 99.2514L91.5854 98.462C97.807 104.816 104.367 105.193 111.267 99.5937C111.306 99.5622 111.352 99.5395 111.401 99.5272C111.45 99.5149 111.501 99.5133 111.55 99.5224C111.6 99.5315 111.647 99.5512 111.688 99.5801C111.73 99.6089 111.764 99.6464 111.79 99.6898C116.607 107.82 126.077 109.966 133.239 103.119C133.278 103.083 133.323 103.055 133.373 103.037C133.422 103.019 133.475 103.012 133.527 103.015C133.579 103.018 133.63 103.033 133.676 103.057C133.722 103.081 133.762 103.114 133.794 103.155L136.948 107.168Z" fill="#C27353"/>
<path d="M189.329 159.647L186.235 169.416C179.144 187.525 159.988 194.297 141.958 194.518C141.816 194.066 141.786 193.643 141.867 193.248C141.914 193.003 142.058 192.853 142.301 192.797C149.451 191.131 156.823 186.659 159.131 179.243C159.417 178.334 159.574 176.776 159.604 174.57C159.673 169.897 161.159 165.694 164.062 161.964C164.939 160.83 166.501 159.702 167.455 158.165C167.629 157.884 167.553 157.762 167.226 157.798C166.612 157.864 166.21 157.667 166.021 157.208C165.936 156.994 165.778 156.875 165.549 156.85C165.258 156.82 164.999 156.73 164.771 156.58C168.002 155.213 170.25 152.479 171.515 148.378C172.442 149.843 173.311 150.693 174.122 150.928C174.437 151.02 174.586 150.902 174.568 150.573C174.301 144.764 171.625 140.312 166.541 137.218L167.587 134.319C167.67 134.09 167.668 133.862 167.58 133.633C166.516 130.769 167.199 128.589 169.631 127.092C172.274 128.726 174.649 130.755 176.756 133.178C176.822 133.253 176.912 133.304 177.01 133.323C177.109 133.342 177.211 133.329 177.301 133.284C177.391 133.24 177.464 133.168 177.509 133.078C177.554 132.989 177.569 132.887 177.551 132.788C176.447 127.439 173.656 123.051 169.178 119.622L166.214 116.385C166.086 116.247 165.929 116.17 165.743 116.152L165.234 116.102C164.988 116.084 164.758 115.975 164.586 115.796C163.689 114.866 162.647 114.592 161.459 114.973C161.202 115.056 160.946 115.049 160.69 114.952C159.292 114.428 157.969 113.749 156.72 112.915C155.836 112.327 154.937 110.535 153.559 111.095C149.067 112.904 144.869 113.329 140.964 112.369C138.955 111.319 137.093 109.934 135.377 108.213C135.791 107.666 136.314 107.318 136.947 107.168C142.844 111.255 148.829 111.214 154.903 107.044C155.101 106.908 155.252 106.945 155.357 107.158C159.082 114.592 169.207 114.983 175.165 110.337C175.378 110.169 175.557 110.205 175.701 110.443C178.617 115.312 182.964 118.021 188.742 118.569C189.043 118.596 189.171 118.758 189.126 119.057C188.457 123.427 189.542 126.527 191.424 130.383C195.694 139.156 191.154 149.372 189.329 159.647Z" fill="#B8674B"/>
<path d="M91.5856 98.4621L91.211 99.2515C91.162 99.3549 91.1396 99.469 91.1456 99.5832C91.1517 99.6975 91.186 99.8085 91.2457 99.9062C93.0988 102.947 95.6259 104.295 98.9579 105.925C100.097 106.475 101.322 106.384 102.561 107.287C102.769 107.439 103 107.483 103.253 107.419C106.993 106.46 110.547 106.801 113.913 108.441C116.6 109.75 122.657 110.786 125.496 110.211C127.957 109.715 130.186 108.64 132.182 106.986C132.367 106.83 132.605 106.751 132.847 106.763C133.892 106.819 134.736 107.303 135.378 108.214C137.093 109.934 138.956 111.319 140.964 112.369L133.443 151.911C127.17 149.527 118.229 155.387 126.085 162.021C127.237 162.649 128.181 163.518 128.915 164.63C129.741 165.863 132.892 170.233 135.358 170.783C135.597 170.838 135.609 170.923 135.395 171.037C134.939 171.29 134.814 171.638 135.021 172.082C126.855 171.483 117.51 169.889 110.42 165.66C110.336 164.723 109.858 164.131 108.986 163.886C108.81 163.837 108.625 163.829 108.446 163.863C108.267 163.897 108.097 163.972 107.952 164.082C107.806 164.192 107.688 164.334 107.606 164.497C107.524 164.661 107.481 164.841 107.481 165.023C107.472 170.227 111.699 174.83 115.899 177.278C121.927 180.79 128.38 181.946 135.256 180.746C135.645 183.981 136.864 186.98 138.913 189.743C139.058 189.943 139.13 190.164 139.128 190.407C139.103 191.472 138.743 192.404 138.048 193.205C137.902 193.375 137.717 193.465 137.492 193.475C137.178 193.49 136.975 193.64 136.883 193.926C126.833 193.318 116.977 191.512 107.315 188.506C107.084 188.433 106.847 188.415 106.603 188.451C106.19 188.507 105.996 188.431 106.022 188.221C89.391 180.929 72.8044 171.101 70.0126 151.169C69.9748 150.905 70.0169 150.657 70.1389 150.425L70.3195 150.091C70.4629 149.819 70.3818 149.681 70.0761 149.678C59.195 149.53 53.0471 140.008 55.3814 129.906C56.2352 126.221 58.3413 123.305 61.6996 121.158L65.7867 121.218C66.2264 121.225 66.6481 121.394 66.9713 121.692C67.2945 121.99 67.4965 122.397 67.5389 122.835C68.1034 128.758 69.2606 134.553 71.0106 140.221C71.2689 141.047 71.4226 141.029 71.4716 140.168C71.8599 133.327 72.667 126.453 73.8928 119.546C74.3399 117.041 76.1414 114.03 78.1011 111.847C81.0223 108.596 82.9456 106.757 84.0218 101.706C84.0769 101.438 84.237 101.268 84.5019 101.197C86.6715 100.612 88.6721 99.6638 90.5036 98.3513C90.6027 98.2794 90.7193 98.2349 90.8417 98.2224C90.9641 98.2099 91.088 98.2298 91.2009 98.2802L91.5856 98.4621ZM115.714 110.89C114.532 109.834 113.182 109.114 111.663 108.73C103.067 106.542 94.5389 110.183 90.4245 118.102C90.3535 118.24 90.3293 118.397 90.3557 118.55C90.3821 118.702 90.4577 118.842 90.5709 118.948C90.6841 119.054 90.8288 119.12 90.983 119.136C91.1371 119.152 91.2923 119.117 91.4249 119.037C99.1894 114.268 104.611 114.67 113.479 115.811C116.419 116.186 118.038 112.962 115.714 110.89ZM93.1293 133.907C92.7353 137.145 92.9293 139.725 93.7113 141.646C95.757 146.688 101.577 148.653 106.43 146.517C110.043 144.929 111.966 141.748 112.198 136.976C113.066 136.069 113.336 135.036 113.008 133.877C111.541 128.605 107.255 125.508 101.798 125.617C95.4343 125.74 90.0585 130.266 87.178 135.726C87.1528 135.774 87.1373 135.826 87.1326 135.88C87.1278 135.934 87.1339 135.988 87.1504 136.039C87.1669 136.09 87.1935 136.137 87.2287 136.178C87.2638 136.218 87.3067 136.25 87.3548 136.273C89.5152 137.332 91.6053 135.413 93.1293 133.907ZM78.6198 163.77C79.0699 164.696 79.8183 165.341 80.865 165.703C81.1165 165.789 81.3892 165.789 81.6409 165.704C81.8926 165.619 82.1092 165.453 82.2572 165.233C82.4051 165.012 82.4761 164.749 82.4591 164.483C82.4422 164.218 82.3383 163.966 82.1634 163.766C78.0018 158.992 77.9396 151.713 83.2757 147.807C83.4987 147.645 83.7644 147.55 84.0409 147.535C84.3175 147.52 84.5934 147.585 84.8357 147.722C86.2583 148.532 90.4029 149.111 90.7315 146.703C90.7681 146.448 90.7363 146.189 90.6394 145.952C90.5424 145.715 90.3838 145.509 90.1802 145.355C87.1016 142.991 83.6805 141.642 79.9168 141.31C75.7858 140.951 74.8738 145.637 74.2136 148.667C73.0002 154.184 76.3307 159.087 78.6198 163.77Z" fill="#D48762"/>
<path d="M169.178 119.622C165.318 117.925 157.556 115.295 154.399 119.374C154.261 119.548 154.188 119.765 154.193 119.988C154.209 121.638 154.952 122.69 156.42 123.143C160.182 124.307 165.345 124.468 169.631 127.091C167.2 128.589 166.516 130.769 167.58 133.633C167.668 133.861 167.67 134.09 167.588 134.319L166.542 137.218C160.624 134.843 153.283 136.171 151.724 143.298C151.625 143.738 151.998 143.884 152.845 143.737C151.25 149.468 152.564 153.582 156.787 156.077C159.212 157.51 162.181 157.452 164.772 156.58C164.999 156.73 165.258 156.82 165.55 156.85C165.779 156.875 165.936 156.994 166.021 157.207C166.21 157.667 166.612 157.864 167.226 157.798C167.553 157.761 167.629 157.884 167.455 158.165C166.502 159.702 164.94 160.829 164.062 161.963C161.159 165.694 159.673 169.896 159.604 174.57C159.574 176.776 159.417 178.334 159.131 179.243C156.823 186.659 149.452 191.131 142.301 192.797C142.059 192.853 141.914 193.003 141.868 193.248C141.786 193.642 141.816 194.066 141.958 194.517L137.427 194.2L136.883 193.926C136.975 193.64 137.178 193.49 137.491 193.475C137.717 193.464 137.902 193.374 138.048 193.205C138.742 192.404 139.102 191.471 139.128 190.406C139.13 190.164 139.058 189.943 138.912 189.743C136.864 186.98 135.645 183.981 135.256 180.746C140.102 179.724 145.334 177.032 147.422 172.291C147.521 172.067 147.55 171.819 147.505 171.579C147.46 171.339 147.345 171.118 147.173 170.945C147 170.772 146.78 170.654 146.54 170.608C146.301 170.562 146.052 170.589 145.828 170.686C145.289 170.915 144.746 171.324 144.199 171.911C141.027 172.418 137.967 172.475 135.021 172.081C134.814 171.638 134.939 171.29 135.395 171.037C135.609 170.922 135.596 170.838 135.358 170.782C132.892 170.233 129.741 165.863 128.915 164.63C128.18 163.518 127.237 162.648 126.084 162.02C126.321 161.798 126.456 161.765 126.488 161.921C128.933 163.031 131.762 163.101 134.975 162.13C136.477 161.67 137.322 160.771 137.51 159.432C138.739 156.803 137.383 154.295 133.443 151.911L140.964 112.369C144.869 113.328 149.067 112.904 153.559 111.095C154.937 110.534 155.836 112.327 156.72 112.915C157.969 113.749 159.292 114.428 160.69 114.952C160.946 115.049 161.203 115.056 161.46 114.973C162.647 114.591 163.689 114.866 164.586 115.795C164.758 115.975 164.989 116.084 165.234 116.102L165.743 116.152C165.93 116.169 166.087 116.247 166.214 116.385L169.178 119.622Z" fill="#C27353"/>
<path d="M115.713 110.89C118.037 112.962 116.418 116.186 113.479 115.811C104.61 114.67 99.189 114.268 91.4245 119.037C91.2919 119.117 91.1367 119.152 90.9826 119.136C90.8284 119.12 90.6837 119.054 90.5705 118.948C90.4573 118.842 90.3818 118.702 90.3553 118.55C90.3289 118.397 90.3531 118.24 90.4241 118.102C94.5386 110.183 103.067 106.542 111.662 108.73C113.181 109.114 114.532 109.834 115.713 110.89Z" fill="#2E1423"/>
<path d="M169.179 119.623C173.656 123.051 176.447 127.44 177.552 132.788C177.57 132.887 177.555 132.989 177.51 133.079C177.465 133.168 177.392 133.241 177.302 133.285C177.212 133.329 177.11 133.342 177.011 133.323C176.913 133.304 176.823 133.253 176.756 133.178C174.65 130.755 172.275 128.726 169.632 127.092C165.345 124.469 160.182 124.307 156.421 123.144C154.952 122.69 154.21 121.638 154.194 119.988C154.189 119.766 154.262 119.549 154.4 119.374C157.556 115.295 165.319 117.925 169.179 119.623Z" fill="#2E1423"/>
<path d="M112.197 136.976C111.893 136.188 108.713 130.53 107.665 131.592C107.42 131.837 107.281 132.169 107.276 132.516C107.272 132.863 107.402 133.2 107.64 133.454C112.64 138.786 106.864 146.489 100.254 144.069C96.9414 142.855 95.6173 139.933 96.2818 135.302C98.9989 136.303 101.006 134.785 100.586 131.892C100.09 128.542 96.1158 130.353 95.1523 132.464C94.1335 132.826 93.4589 133.307 93.1287 133.907C91.6046 135.413 89.5145 137.332 87.3541 136.273C87.306 136.25 87.2631 136.218 87.228 136.177C87.1928 136.137 87.1662 136.09 87.1497 136.039C87.1332 135.988 87.1271 135.934 87.1319 135.88C87.1366 135.826 87.1521 135.773 87.1773 135.725C90.0579 130.265 95.4336 125.739 101.797 125.617C107.254 125.508 111.54 128.604 113.007 133.876C113.335 135.035 113.065 136.069 112.197 136.976Z" fill="#0D070A"/>
<path d="M166.542 137.218C171.625 140.312 174.301 144.764 174.569 150.573C174.586 150.902 174.437 151.02 174.122 150.928C173.311 150.693 172.442 149.843 171.515 148.378C170.946 146.43 170.29 145.043 169.546 144.217C168.977 143.585 168.312 143.166 167.55 142.959C167.421 142.921 167.283 142.928 167.158 142.979C167.033 143.029 166.929 143.121 166.863 143.238C166.796 143.355 166.772 143.491 166.793 143.624C166.813 143.757 166.879 143.879 166.977 143.97C169.743 146.619 168.245 151.49 165.484 153.282C160.108 156.78 155.085 152.399 155.538 146.468C155.554 146.233 155.66 146.047 155.859 145.91C156.499 145.485 156.964 144.997 157.251 144.448C159.81 145.181 161.8 142.69 160.649 140.323C160.549 140.111 160.393 139.956 160.181 139.857C158.578 139.108 157.212 139.525 156.083 141.108C154.831 140.813 153.751 141.689 152.845 143.737C151.998 143.885 151.625 143.739 151.724 143.298C153.283 136.171 160.624 134.843 166.542 137.218Z" fill="#0D070A"/>
<path d="M186.236 169.416L189.33 159.648C192.867 155.043 195.545 149.964 197.362 144.411C197.414 144.25 197.514 144.13 197.663 144.054C197.776 143.99 197.85 143.927 197.885 143.865C200.735 143.737 202.953 144.674 204.603 147.105C212.398 158.649 199.633 175.058 186.236 169.416Z" fill="#8B4434"/>
<path d="M61.6996 121.158C58.3414 123.305 56.2353 126.221 55.3814 129.906C53.0471 140.007 59.195 149.53 70.0761 149.678C70.3818 149.681 70.4629 149.819 70.3195 150.091L70.1389 150.425C70.0169 150.657 69.9748 150.905 70.0126 151.169C72.8044 171.101 89.391 180.929 106.022 188.221C105.567 188.926 105.036 189.376 104.43 189.569L99.2444 190.096C94.6654 190.587 90.4758 191.604 86.6758 193.146C84.3507 191.468 83.1455 189.478 83.0602 187.174C83.0583 187.104 83.0382 187.036 83.0019 186.976C82.9655 186.916 82.9142 186.867 82.853 186.833C82.7918 186.799 82.7227 186.781 82.6527 186.782C82.5827 186.783 82.5142 186.802 82.4538 186.838C75.1127 191.089 66.5701 186.183 67.3748 177.447C67.396 177.208 67.2876 177.117 67.0495 177.173C60.1967 178.805 55.6934 176.617 53.5395 170.608C52.8411 168.667 53.2878 166.25 53.5184 164.204C53.5507 163.957 53.4404 163.833 53.1875 163.834C48.977 163.844 45.3887 162.406 42.4228 159.521C40.5488 157.648 39.3104 155.309 38.7074 152.504C39.3014 153.042 39.836 153.643 40.3114 154.307C41.1481 155.477 41.0174 156.891 42.0194 158.075C44.6475 161.204 48.2292 162.866 52.7644 163.062C52.9121 163.069 53.0597 163.046 53.198 162.993C53.3363 162.94 53.4625 162.86 53.5688 162.756C53.6751 162.653 53.7593 162.529 53.8162 162.391C53.8731 162.254 53.9015 162.106 53.8997 161.957C53.8086 155.25 53.9258 148.46 54.2511 141.59C54.4326 137.815 53.3663 132.414 54.6579 128.842C56.0685 124.97 58.4157 122.409 61.6996 121.158Z" fill="#200B1D"/>
<path d="M157.252 144.448C156.072 143.752 155.683 142.639 156.083 141.108C157.212 139.525 158.578 139.108 160.182 139.857C160.393 139.956 160.549 140.111 160.649 140.323C161.8 142.69 159.81 145.181 157.252 144.448Z" fill="#FDFDFD"/>
<path d="M96.2824 135.302C95.507 134.573 95.1305 133.627 95.1529 132.464C96.1163 130.353 100.091 128.542 100.587 131.892C101.007 134.785 98.9995 136.303 96.2824 135.302Z" fill="#FDFDFD"/>
<path d="M112.197 136.976C111.965 141.748 110.043 144.928 106.43 146.517C101.576 148.653 95.7566 146.688 93.7109 141.646C92.9288 139.725 92.7349 137.145 93.1289 133.907C93.4592 133.307 94.1338 132.826 95.1526 132.464C95.1303 133.627 95.5068 134.573 96.2821 135.302C95.6176 139.933 96.9417 142.855 100.255 144.069C106.864 146.488 112.641 138.786 107.641 133.454C107.403 133.2 107.272 132.863 107.277 132.516C107.281 132.168 107.421 131.837 107.665 131.592C108.713 130.53 111.893 136.188 112.197 136.976Z" fill="#8B4434"/>
<path d="M171.515 148.378C170.25 152.479 168.002 155.213 164.772 156.58C162.181 157.452 159.212 157.51 156.787 156.077C152.564 153.582 151.25 149.468 152.845 143.737C153.751 141.689 154.831 140.813 156.083 141.108C155.682 142.639 156.072 143.752 157.251 144.448C156.964 144.997 156.499 145.485 155.859 145.91C155.66 146.047 155.554 146.233 155.538 146.468C155.085 152.399 160.108 156.78 165.484 153.282C168.245 151.49 169.743 146.619 166.977 143.97C166.879 143.879 166.813 143.757 166.793 143.624C166.772 143.491 166.796 143.355 166.863 143.238C166.929 143.121 167.033 143.029 167.158 142.979C167.283 142.928 167.421 142.921 167.55 142.959C168.312 143.166 168.977 143.585 169.546 144.217C170.29 145.043 170.946 146.43 171.515 148.378Z" fill="#8B4434"/>
<path d="M78.619 163.769C76.33 159.087 72.9995 154.184 74.2129 148.667C74.8731 145.637 75.7851 140.951 79.9161 141.31C83.6798 141.642 87.1009 142.991 90.1795 145.355C90.3831 145.509 90.5417 145.715 90.6386 145.952C90.7356 146.189 90.7674 146.448 90.7308 146.703C90.4022 149.111 86.2576 148.532 84.835 147.721C84.5927 147.585 84.3168 147.52 84.0402 147.535C83.7636 147.55 83.498 147.645 83.275 147.807C77.9389 151.713 78.0011 158.992 82.1627 163.766C82.3376 163.966 82.4415 164.218 82.4584 164.483C82.4754 164.749 82.4044 165.012 82.2565 165.233C82.1085 165.453 81.8919 165.619 81.6402 165.704C81.3885 165.789 81.1158 165.789 80.8642 165.703C79.8176 165.341 79.0692 164.696 78.619 163.769Z" fill="#F2A177"/>
<path d="M133.443 151.911C137.383 154.296 138.739 156.803 137.51 159.432C134.335 154.774 128.1 154.7 124.741 158.854C124.662 158.951 124.617 159.073 124.614 159.199C124.611 159.325 124.65 159.449 124.725 159.551L126.488 161.921C126.456 161.765 126.322 161.798 126.085 162.02C118.229 155.387 127.17 149.527 133.443 151.911Z" fill="#B8674B"/>
<path d="M137.51 159.433C137.322 160.771 136.477 161.67 134.975 162.13C131.763 163.101 128.934 163.031 126.488 161.921L124.725 159.552C124.65 159.449 124.611 159.325 124.614 159.199C124.617 159.073 124.662 158.952 124.741 158.855C128.1 154.7 134.335 154.775 137.51 159.433Z" fill="#F2A177"/>
<path d="M110.42 165.66C113.937 178.57 136.801 183.071 144.199 171.911C144.746 171.324 145.289 170.915 145.828 170.686C146.053 170.589 146.301 170.562 146.541 170.608C146.78 170.654 147.001 170.772 147.173 170.945C147.345 171.118 147.461 171.339 147.505 171.579C147.55 171.819 147.521 172.067 147.422 172.291C145.335 177.032 140.103 179.724 135.256 180.746C128.379 181.945 121.927 180.789 115.898 177.278C111.699 174.83 107.472 170.227 107.48 165.023C107.481 164.84 107.524 164.66 107.606 164.497C107.688 164.334 107.806 164.192 107.952 164.082C108.097 163.972 108.266 163.897 108.446 163.863C108.625 163.829 108.81 163.837 108.986 163.886C109.858 164.131 110.336 164.722 110.42 165.66Z" fill="#491D22"/>
<path d="M110.42 165.66C117.51 169.889 126.855 171.483 135.021 172.082C137.967 172.475 141.027 172.418 144.199 171.912C136.801 183.071 113.937 178.571 110.42 165.66Z" fill="#FDFDFD"/>
<path d="M210.157 186.198C210.135 186.467 210.266 186.712 210.549 186.935C210.729 187.078 210.758 187.25 210.636 187.453C208.584 190.838 206.003 194.103 202.893 197.249C191.428 208.849 178.315 217.007 163.556 221.724C162.812 215.654 159.965 210.121 155.015 205.125C158.527 204.278 159.475 202.9 161.463 200.766C161.502 200.725 161.548 200.692 161.6 200.668C161.652 200.645 161.708 200.633 161.764 200.631C161.821 200.63 161.877 200.64 161.93 200.661C161.982 200.682 162.03 200.713 162.071 200.753C168.052 206.616 177.008 204.666 178.998 196.161C179.071 195.847 179.23 195.794 179.477 196.001C184.33 200.055 191.468 199.75 195.231 194.542C196.393 192.938 196.71 190.769 197.23 188.779C197.29 188.541 197.437 188.45 197.671 188.504C202.148 189.502 206.31 188.733 210.157 186.198Z" fill="#D7E3E8"/>
<path d="M42.4221 159.521C45.3881 162.406 48.9763 163.844 53.1869 163.834C53.4397 163.833 53.55 163.957 53.5178 164.204C53.2872 166.25 52.8404 168.667 53.5388 170.608C55.6927 176.617 60.1961 178.805 67.0488 177.174C67.2869 177.117 67.3954 177.208 67.3742 177.448C66.5694 186.183 75.1121 191.089 82.4532 186.838C82.5135 186.803 82.5821 186.783 82.6521 186.782C82.7221 186.782 82.7911 186.799 82.8523 186.833C82.9136 186.867 82.9649 186.916 83.0012 186.976C83.0375 187.036 83.0576 187.104 83.0595 187.174C83.1448 189.478 84.35 191.469 86.6752 193.146C80.8002 196.29 76.4874 200.61 73.7367 206.107C68.8382 201.98 65.6385 199.17 64.1376 197.676C53.6263 187.216 46.1633 174.904 41.7485 160.741C41.6798 160.515 41.7234 160.316 41.8791 160.143L42.4221 159.521Z" fill="#D7E3E8"/>
<path d="M136.883 193.926L137.427 194.2C137.344 194.23 137.435 194.411 137.699 194.742C137.398 194.582 137.231 194.707 137.185 195.019C133.582 218.182 102.022 214.363 104.429 189.569C105.036 189.375 105.566 188.926 106.021 188.221C105.996 188.43 106.189 188.507 106.602 188.451C106.846 188.414 107.084 188.433 107.314 188.506C116.977 191.512 126.833 193.318 136.883 193.926Z" fill="#B8674B"/>
<path d="M137.699 194.742L141.708 196.72C139.063 208.956 134.401 217.351 120.333 217.376C110.811 217.342 102.123 210.327 100.517 200.978C100.51 200.933 100.43 199.114 100.277 195.52C100.194 193.606 99.8492 191.798 99.2438 190.096L104.429 189.569C102.021 214.363 133.582 218.182 137.185 195.02C137.231 194.707 137.398 194.582 137.699 194.742Z" fill="#FEC858"/>
<path d="M141.709 196.72C144.925 198.156 147.482 199.499 149.379 200.749C151.18 201.939 153.059 203.398 155.016 205.125C159.966 210.121 162.813 215.654 163.557 221.724L161.408 222.657C146.116 227.935 130.65 229.215 115.01 226.497C115.338 226.052 116.036 225.791 117.103 225.715C117.389 225.695 117.517 225.54 117.489 225.248C117.244 222.825 117.596 220.552 118.544 218.429C118.623 218.252 118.615 218.098 118.521 217.965C118.412 217.806 118.455 217.726 118.649 217.725C119.256 217.726 119.818 217.61 120.334 217.376C134.401 217.351 139.063 208.957 141.709 196.72Z" fill="#FCAF46"/>
<path d="M99.2439 190.096C99.8493 191.798 100.194 193.606 100.277 195.521C100.43 199.114 100.51 200.933 100.517 200.978C102.123 210.327 110.811 217.342 120.334 217.377C119.818 217.61 119.256 217.726 118.649 217.725C118.454 217.726 118.411 217.806 118.52 217.966C118.615 218.098 118.622 218.253 118.544 218.429C117.595 220.552 117.244 222.825 117.488 225.248C117.517 225.54 117.388 225.696 117.103 225.715C116.035 225.792 115.337 226.052 115.009 226.497C100.254 223.92 86.5947 217.417 75.1617 207.763C74.531 207.413 74.056 206.861 73.7369 206.107C76.4876 200.61 80.8004 196.29 86.6753 193.146C90.4753 191.604 94.6648 190.587 99.2439 190.096Z" fill="#FDBA50"/>
<path d="M75.1616 207.763C86.5946 217.416 100.254 223.919 115.009 226.497C130.65 229.215 146.116 227.935 161.408 222.657C161.325 222.745 161.367 222.81 161.535 222.853C161.594 222.869 161.647 222.901 161.688 222.947C161.729 222.992 161.756 223.048 161.766 223.108C161.775 223.168 161.768 223.23 161.743 223.286C161.719 223.342 161.678 223.39 161.627 223.423C159.892 224.543 158.141 225.966 156.363 226.824C129.224 239.947 95.5796 233.675 76.0588 210.036C75.9136 209.861 75.846 209.658 75.8562 209.426C75.8695 208.918 75.638 208.364 75.1616 207.763Z" fill="#D7E3E8"/>
</svg>
